<svg width="46" height="80" viewBox="0 0 46 80" fill="none" xmlns="http://www.w3.org/2000/svg">
<path d="M42.5304 33.3658C38.8851 28.8384 29.7997 18.8414 22.6212 15.0718L16.7326 6.47912C16.1718 1.21267 22.6212 -1.83634 25.9862 1.21266C30.4727 7.49545 40.0628 22.722 42.5304 33.3658Z" fill="#F68FFF"/>
<path d="M34.9593 7.86503C35.8005 2.04421 43.3717 1.21266 45.6149 5.92476L45.4498 31.3332C42.4379 21.5443 40.4162 16.2477 34.9593 7.86503Z" fill="#F68FFF"/>
<path d="M22.9937 51.0014C21.5917 46.5665 9.25357 44.6263 9.25357 56.5451H-3.84172e-07C0.186941 49.246 5.49606 34.814 25.237 35.4793C44.978 36.1445 33.8363 35.7565 25.7978 35.4793C23.5546 32.9846 15.9834 26.3323 3.64535 19.6799C1.96288 16.631 3.08452 11.9188 8.41234 11.9188C13.2728 13.1199 26.1904 19.5136 38.9772 35.4793C51.7639 51.4449 44.305 68.4639 38.4164 74.2847C30.5648 80.6599 11.2165 86.9242 -3.84172e-07 62.0887H11.2165C14.4408 67.1235 22.9937 71.5129 22.9937 71.5129C22.9937 71.5129 34.7108 64.7416 36.7339 56.5451C37.8555 44.6263 24.3958 46.5665 22.9937 51.0014Z" fill="#F68FFF"/>
</svg>
