<svg width="83" height="145" viewBox="0 0 83 145" fill="none" xmlns="http://www.w3.org/2000/svg">
<path d="M75.8358 60.1875C69.3358 52.0208 53.1358 33.9875 40.3358 27.1875L29.8358 11.6875C28.8358 2.1875 40.3358 -3.31252 46.3358 2.18749C54.3358 13.5208 71.4358 40.9875 75.8358 60.1875Z" fill="#F68FFF"/>
<path d="M62.3358 14.1875C63.8358 3.6875 77.3358 2.18749 81.3358 10.6875L81.0413 56.5211C75.6709 38.8632 72.066 29.3088 62.3358 14.1875Z" fill="#F68FFF"/>
<path d="M41 92C38.5 84 16.5 80.5 16.5 102H-6.85014e-07C0.333333 88.8333 9.8 62.8 45 64C80.2 65.2 60.3333 64.5 46 64C42 59.5 28.5 47.5 6.5 35.5C3.5 30.0001 5.5 21.5 15 21.5C23.6667 23.6667 46.7 35.2 69.5 64C92.3 92.8 79 123.5 68.5 134C54.5 145.5 20 156.8 -6.85014e-07 112H20C25.7492 121.082 41 129 41 129C41 129 61.8927 116.785 65.5 102C67.5 80.5 43.5 84 41 92Z" fill="#F68FFF"/>
</svg>
